<svg width="50" height="50" viewBox="0 0 50 50" fill="none" xmlns="http://www.w3.org/2000/svg">
<path d="M43.6667 1H6.33333C3.38781 1 1 3.38781 1 6.33333V43.6667C1 46.6122 3.38781 49 6.33333 49H43.6667C46.6122 49 49 46.6122 49 43.6667V6.33333C49 3.38781 46.6122 1 43.6667 1Z" stroke="#666666" stroke-width="2" stroke-linecap="round" stroke-linejoin="round"/>
<path d="M15.6667 19.6666C17.8759 19.6666 19.6667 17.8758 19.6667 15.6666C19.6667 13.4575 17.8759 11.6666 15.6667 11.6666C13.4576 11.6666 11.6667 13.4575 11.6667 15.6666C11.6667 17.8758 13.4576 19.6666 15.6667 19.6666Z" stroke="#666666" stroke-width="2" stroke-linecap="round" stroke-linejoin="round"/>
<path d="M48.9999 33L35.6666 19.6666L6.33325 49" stroke="#666666" stroke-width="2" stroke-linecap="round" stroke-linejoin="round"/>
</svg>
