<svg width="18" height="18" viewBox="0 0 18 18" fill="none" xmlns="http://www.w3.org/2000/svg">
<path d="M5.6685 1.5V4C5.6685 4.44203 5.4929 4.86595 5.18034 5.17851C4.86778 5.49107 4.44386 5.66667 4.00183 5.66667H1.50183M16.5018 5.66667H14.0018C13.5598 5.66667 13.1359 5.49107 12.8233 5.17851C12.5108 4.86595 12.3352 4.44203 12.3352 4V1.5M12.3352 16.5V14C12.3352 13.558 12.5108 13.134 12.8233 12.8215C13.1359 12.5089 13.5598 12.3333 14.0018 12.3333H16.5018M1.50183 12.3333H4.00183C4.44386 12.3333 4.86778 12.5089 5.18034 12.8215C5.4929 13.134 5.6685 13.558 5.6685 14V16.5" stroke="#F8F8F8" stroke-width="2" stroke-linecap="round" stroke-linejoin="round"/>
</svg>
