<svg width="40" height="36" viewBox="0 0 40 36" fill="none" xmlns="http://www.w3.org/2000/svg">
<path d="M25.6066 27.2699C23.9729 25.9558 22.0283 24.983 19.9066 24.3941C22.179 23.1352 23.6719 21.0283 23.6719 18.646C23.6719 14.7998 19.7817 11.6707 15 11.6707C10.2183 11.6707 6.32812 14.7998 6.32812 18.646C6.32812 21.0283 7.82103 23.1352 10.0935 24.3941C7.9718 24.983 6.02719 25.9558 4.39342 27.2699C1.56029 29.5488 0 32.5787 0 35.8015H2.34375C2.34375 30.1881 8.02131 25.6213 15 25.6213C21.9787 25.6213 27.6562 30.1881 27.6562 35.8015H30C30 32.5787 28.4397 29.5488 25.6066 27.2699ZM15 23.7361C11.5107 23.7361 8.67188 21.4527 8.67188 18.646C8.67188 15.8393 11.5107 13.5559 15 13.5559C18.4893 13.5559 21.3281 15.8393 21.3281 18.646C21.3281 21.4527 18.4893 23.7361 15 23.7361Z" fill="#2E266F"/>
<circle cx="32.5" cy="7.5" r="7.5" fill="#31A24C"/>
</svg>
